<svg version="1.1" baseProfile="full" xmlns="http://www.w3.org/2000/svg" xmlns:xlink="http://www.w3.org/1999/xlink" xmlns:rdf="http://www.w3.org/1999/02/22-rdf-syntax-ns#" xmlns:dc="http://purl.org/dc/elements/1.1/" stroke-linecap="round" stroke-linejoin="round" fill-rule="evenodd" width="800" height="800" viewBox="0 0 16000 16000"><metadata><rdf:RDF><rdf:Description><dc:description>MSS/MilX-Export to SVG</dc:description><dc:publisher>gs-soft AG</dc:publisher></rdf:Description></rdf:RDF></metadata><defs><mask id="cr0" maskUnits="userSpaceOnUse" x="0" y="0" width="16000" height="16000" fill-rule="nonzero"><use xlink:href="#cp0" fill="white"/></mask><mask id="cr1" maskUnits="userSpaceOnUse" x="0" y="0" width="16000" height="16000" fill-rule="nonzero"><use xlink:href="#cp1" fill="white"/></mask><polygon id="cp0" points="163,10612 163,5388 980,3919 1959,2776 3265,2286 5224,2123 8000,2939 10449,3756 11592,4245 13061,4245 14204,4572 15020,5388 15673,7674 15673,10122 15184,12244 14531,13224 13388,13714 12571,13714 11429,12897 10612,12081 10122,11591 9306,11428 8163,11591 6367,12244 4408,12734 2776,13061 1796,12734 980,12081 490,11102 163,10612" shape-rendering="crispEdges"/><polygon id="cp1" points="0,1960 16000,1960 16000,14040 0,14040" shape-rendering="crispEdges"/><style type="text/css">.ps0 {fill:none;stroke:rgb(66,160,255);stroke-width:1;}.ts0 {font-family:Arial;font-size:105px;font-weight:bold;fill:rgb(66,160,255);text-anchor:middle;}</style><g id="gb1"><g transform="matrix(0.0666667 0 0 0.0666667 0 0)"><text x="239" y="7" class="ts0"><tspan dy="1em">AA</tspan><tspan x="239" dy="1.22em"> X-ray</tspan></text></g></g></defs><g mask="url(#cr0)"><g transform="matrix(162.925 0 0 163.243 5050.34 6792)"><use xlink:href="#gb1"/></g></g><g mask="url(#cr1)"><g transform="matrix(10.8844 0 0 10.8829 0 1960)"><polyline points="13,798 13,312 86,179 175,76 307,32 484,17 735,91 956,164 1059,208 1207,208 1310,238 1383,312 1442,518 1442,754 1398,945 1339,1034 1236,1078 1148,1078 1044,1004 971,931 926,887 853,872 750,887 587,945 411,990 248,1019 160,990 86,931 42,842 13,798" class="ps0"/></g></g></svg>