<svg version="1.1" baseProfile="full" xmlns="http://www.w3.org/2000/svg" xmlns:xlink="http://www.w3.org/1999/xlink" xmlns:rdf="http://www.w3.org/1999/02/22-rdf-syntax-ns#" xmlns:dc="http://purl.org/dc/elements/1.1/" stroke-linecap="round" stroke-linejoin="round" fill-rule="evenodd" width="800" height="800" viewBox="0 0 16000 16000"><metadata><rdf:RDF><rdf:Description><dc:description>MSS/MilX-Export to SVG</dc:description><dc:publisher>gs-soft AG</dc:publisher></rdf:Description></rdf:RDF></metadata><defs><g id="co0"><use xlink:href="#cp1"/><use xlink:href="#cp2"/></g><mask id="co2" maskUnits="userSpaceOnUse" x="0" y="0" width="16000" height="16000"><g><use xlink:href="#cp0" fill="white"/><use xlink:href="#co0" fill="black"/></g></mask><g id="co1"><use xlink:href="#cp0" mask="url(#co2)"/></g><mask id="cr0" maskUnits="userSpaceOnUse" x="0" y="0" width="16000" height="16000" fill-rule="nonzero"><use xlink:href="#co1" fill="white"/></mask><mask id="cr1" maskUnits="userSpaceOnUse" x="0" y="0" width="16000" height="16000" fill-rule="nonzero"><use xlink:href="#cp3" fill="white"/></mask><polygon id="cp0" points="0,6640 16000,6640 16000,9360 0,9360" shape-rendering="crispEdges"/><polygon id="cp1" points="53,7653 53,8347 1807,8347 1807,7653" shape-rendering="crispEdges"/><polygon id="cp2" points="14140,7653 14140,8347 15894,8347 15894,7653" shape-rendering="crispEdges"/><polygon id="cp3" points="0,6640 16000,6640 16000,9360 0,9360" shape-rendering="crispEdges"/><style type="text/css">.ps0 {fill:none;stroke:rgb(66,160,255);stroke-width:8;}.ts0 {font-family:Arial;font-size:120px;font-weight:bold;fill:rgb(66,160,255);text-anchor:middle;}</style><g id="gb1"><g transform="matrix(0.0666667 0 0 0.0666667 0.533333 0.533333)"><path d="M0,322 C0,144 323,144 323,322" fill-rule="evenodd" class="ps0"/><path d="M0,214 C0,36 323,36 323,214" fill-rule="evenodd" class="ps0"/></g></g><g id="gb2"><g transform="matrix(0.0666667 0 0 0.0666667 0 0)"><text x="250" y="150" class="ts0">FLET</text></g></g></defs><g mask="url(#cr0)"><g transform="matrix(3.54374 0 0 3.55556 0 6640)"><path d="M567,518 C567,340 890,340 890,518" fill-rule="evenodd" class="ps0"/><path d="M567,410 C567,232 890,232 890,410" fill-rule="evenodd" class="ps0"/></g><g transform="matrix(53.1561 0 0 53.3333 3253.16 7280)"><use xlink:href="#gb1"/><use xlink:href="#gb1" x="24" y="0"/><use xlink:href="#gb1" x="48" y="0"/><use xlink:href="#gb1" x="72" y="0"/><use xlink:href="#gb1" x="96" y="0"/><use xlink:href="#gb1" x="120" y="0"/><use xlink:href="#gb1" x="144" y="0"/><use xlink:href="#gb1" x="168" y="0"/></g></g><g mask="url(#cr1)"><g transform="matrix(53.6931 0 0 53.3333 60.2436 7628.44)"><use xlink:href="#gb2"/><use xlink:href="#gb2" x="262" y="0"/></g></g></svg>