<svg version="1.1" baseProfile="full" xmlns="http://www.w3.org/2000/svg" xmlns:xlink="http://www.w3.org/1999/xlink" xmlns:rdf="http://www.w3.org/1999/02/22-rdf-syntax-ns#" xmlns:dc="http://purl.org/dc/elements/1.1/" stroke-linecap="round" stroke-linejoin="round" fill-rule="evenodd" width="800" height="800" viewBox="0 0 16000 16000"><metadata><rdf:RDF><rdf:Description><dc:description>MSS/MilX-Export to SVG</dc:description><dc:publisher>gs-soft AG</dc:publisher></rdf:Description></rdf:RDF></metadata><defs><mask id="cr0" maskUnits="userSpaceOnUse" x="0" y="0" width="16000" height="16000" fill-rule="nonzero"><use xlink:href="#cp0" fill="white"/></mask><polygon id="cp0" points="0,5920 16000,5920 16000,10060 0,10060" shape-rendering="crispEdges"/><style type="text/css">.ps0 {fill:none;stroke:rgb(66,160,255);stroke-width:3;}</style><g id="gb1"><g transform="matrix(0.0666667 0 0 0.0666667 0.2 0.2)"><polyline points="0,175 105,0 210,175 0,175" class="ps0"/></g></g></defs><g mask="url(#cr0)"><g transform="matrix(5.64374 0 0 5.63265 0 5920)"><polyline points="2251,360 2356,185 2461,360 2251,360" class="ps0"/></g><g transform="matrix(84.6561 0 0 84.4898 2009.17 6978.94)"><use xlink:href="#gb1"/><use xlink:href="#gb1" x="14" y="0"/><use xlink:href="#gb1" x="28" y="0"/><use xlink:href="#gb1" x="42" y="0"/><use xlink:href="#gb1" x="56" y="0"/><use xlink:href="#gb1" x="70" y="0"/><use xlink:href="#gb1" x="84" y="0"/><use xlink:href="#gb1" x="98" y="0"/><use xlink:href="#gb1" x="112" y="0"/></g><g transform="matrix(5.64374 0 0 5.63265 0 5920)"><polyline points="2249,360 2251,360" class="ps0"/></g></g></svg>