<svg version="1.1" baseProfile="full" xmlns="http://www.w3.org/2000/svg" xmlns:xlink="http://www.w3.org/1999/xlink" xmlns:rdf="http://www.w3.org/1999/02/22-rdf-syntax-ns#" xmlns:dc="http://purl.org/dc/elements/1.1/" stroke-linecap="round" stroke-linejoin="round" fill-rule="evenodd" width="800" height="800" viewBox="0 0 16000 16000"><metadata><rdf:RDF><rdf:Description><dc:description>MSS/MilX-Export to SVG</dc:description><dc:publisher>gs-soft AG</dc:publisher></rdf:Description></rdf:RDF></metadata><defs><mask id="cr0" maskUnits="userSpaceOnUse" x="0" y="0" width="16000" height="16000" fill-rule="nonzero"><use xlink:href="#cp0" fill="white"/></mask><polygon id="cp0" points="0,2640 16000,2640 16000,13360 0,13360" shape-rendering="crispEdges"/><style type="text/css">.ps0 {fill:none;stroke:rgb(66,160,255);stroke-width:1;}.ts0 {font-family:Arial;font-size:105px;font-weight:bold;fill:rgb(66,160,255);text-anchor:middle;}</style><g id="gb1"><g transform="matrix(0.0666667 0 0 0.0666667 0 0)"><text x="313" y="127" class="ts0">Whiskey</text></g></g></defs><g mask="url(#cr0)"><g transform="matrix(180.664 0 0 181.695 4121.21 6915.89)"><use xlink:href="#gb1"/></g><g transform="matrix(12.1212 0 0 12.113 0 2640)"><polyline points="13,51 141,21 269,13 397,28 525,51 653,36 716,21 780,13 844,21 972,82 1036,90 1292,51" class="ps0"/><polyline points="13,819 141,788 269,780 397,795 525,819 653,803 716,788 780,780 844,788 972,849 1036,857 1292,819" class="ps0"/></g></g></svg>