<svg version="1.1" baseProfile="full" xmlns="http://www.w3.org/2000/svg" xmlns:xlink="http://www.w3.org/1999/xlink" xmlns:rdf="http://www.w3.org/1999/02/22-rdf-syntax-ns#" xmlns:dc="http://purl.org/dc/elements/1.1/" stroke-linecap="round" stroke-linejoin="round" fill-rule="evenodd" width="800" height="800" viewBox="0 0 16000 16000"><metadata><rdf:RDF><rdf:Description><dc:description>MSS/MilX-Export to SVG</dc:description><dc:publisher>gs-soft AG</dc:publisher></rdf:Description></rdf:RDF></metadata><defs><mask id="co1" maskUnits="userSpaceOnUse" x="0" y="0" width="16000" height="16000"><g><use xlink:href="#cp0" fill="white"/><use xlink:href="#cp1" fill="black"/></g></mask><g id="co0"><use xlink:href="#cp0" mask="url(#co1)"/></g><mask id="cr0" maskUnits="userSpaceOnUse" x="0" y="0" width="16000" height="16000" fill-rule="nonzero"><use xlink:href="#co0" fill="white"/></mask><mask id="cr1" maskUnits="userSpaceOnUse" x="0" y="0" width="16000" height="16000" fill-rule="nonzero"><use xlink:href="#cp2" fill="white"/></mask><polygon id="cp0" points="0,7400 16000,7400 16000,8600 0,8600" shape-rendering="crispEdges"/><polygon id="cp1" points="7341,7463 7341,8474 8659,8474 8659,7463" shape-rendering="crispEdges"/><polygon id="cp2" points="0,7400 16000,7400 16000,8600 0,8600" shape-rendering="crispEdges"/><style type="text/css">.ps0 {fill:none;stroke:rgb(66,160,255);stroke-width:2;}.ts0 {font-family:Arial;font-size:1403px;font-weight:bold;fill:rgb(66,160,255);text-anchor:middle;}</style><g id="gb1"><g transform="matrix(0.01 0 0 0.01 1 1)"><text x="967" y="1291" class="ts0">Ø</text></g></g></defs><g mask="url(#cr0)"><g transform="matrix(4.18301 0 0 4.21053 0 7400)"><polyline points="15,135 3795,135" class="ps0"/></g></g><g mask="url(#cr1)"><g transform="matrix(59.8931 0 0 59.4427 7311.9 7463.16)"><use xlink:href="#gb1"/></g></g></svg>