<svg version="1.1" baseProfile="full" xmlns="http://www.w3.org/2000/svg" xmlns:xlink="http://www.w3.org/1999/xlink" xmlns:rdf="http://www.w3.org/1999/02/22-rdf-syntax-ns#" xmlns:dc="http://purl.org/dc/elements/1.1/" stroke-linecap="round" stroke-linejoin="round" fill-rule="evenodd" width="800" height="800" viewBox="0 0 16000 16000"><metadata><rdf:RDF><rdf:Description><dc:description>MSS/MilX-Export to SVG</dc:description><dc:publisher>gs-soft AG</dc:publisher></rdf:Description></rdf:RDF></metadata><defs><mask id="cr0" maskUnits="userSpaceOnUse" x="0" y="0" width="16000" height="16000" fill-rule="nonzero"><use xlink:href="#cp0" fill="white"/></mask><mask id="cr1" maskUnits="userSpaceOnUse" x="0" y="0" width="16000" height="16000" fill-rule="nonzero"><use xlink:href="#cp1" fill="white"/></mask><polygon id="cp0" points="0,6320 16000,6320 16000,9660 0,9660" shape-rendering="crispEdges"/><path id="cp1" d="M15628,7804 L13209,9289 13209,6506 15628,7804 Z" fill-rule="evenodd"/><style type="text/css">.ps0 {fill:none;stroke:rgb(66,160,255);stroke-width:1;}.bs0 {fill:rgb(66,160,255);stroke:none;}</style></defs><g mask="url(#cr0)"><g transform="matrix(12.4031 0 0 12.3704 0 6320)"><polyline points="127,127 14,14 467,14 581,127 467,241 14,241 127,127" class="ps0"/><polyline points="581,127 1261,127" class="ps0"/></g></g><g mask="url(#cr1)"><g transform="matrix(12.4031 0 0 12.3704 0 6320)"><rect x="0" y="0" width="1290" height="270" class="bs0"/></g></g><g mask="url(#cr0)"><g transform="matrix(12.4031 0 0 12.3704 0 6320)"><polyline points="1261,127 1068,14 1068,241 1261,127" class="ps0"/></g></g></svg>