<svg version="1.1" baseProfile="full" xmlns="http://www.w3.org/2000/svg" xmlns:xlink="http://www.w3.org/1999/xlink" xmlns:rdf="http://www.w3.org/1999/02/22-rdf-syntax-ns#" xmlns:dc="http://purl.org/dc/elements/1.1/" stroke-linecap="round" stroke-linejoin="round" fill-rule="evenodd" width="800" height="800" viewBox="0 0 16000 16000"><metadata><rdf:RDF><rdf:Description><dc:description>MSS/MilX-Export to SVG</dc:description><dc:publisher>gs-soft AG</dc:publisher></rdf:Description></rdf:RDF></metadata><defs><mask id="cr0" maskUnits="userSpaceOnUse" x="0" y="0" width="16000" height="16000" fill-rule="nonzero"><use xlink:href="#cp0" fill="white"/></mask><mask id="cr1" maskUnits="userSpaceOnUse" x="0" y="0" width="16000" height="16000" fill-rule="nonzero"><use xlink:href="#cp1" fill="white"/></mask><polygon id="cp0" points="87,10703 87,5365 874,3878 1923,2740 3322,2303 5246,2128 8044,2915 10492,3703 11628,4228 13202,4228 14339,4578 15126,5365 15825,7640 15825,10178 15301,12365 14689,13328 13552,13765 12590,13765 11454,12978 10667,12190 10142,11665 9355,11490 8219,11665 6383,12365 4459,12803 2710,13153 1749,12803 874,12190 437,11228 87,10703" shape-rendering="crispEdges"/><polygon id="cp1" points="0,2040 16000,2040 16000,13940 0,13940" shape-rendering="crispEdges"/><style type="text/css">.ps0 {fill:none;stroke:rgb(66,160,255);stroke-width:3;}.ps1 {fill:none;stroke:rgb(66,160,255);stroke-width:11;}.ps2 {fill:none;stroke:rgb(66,160,255);stroke-width:11;stroke-dasharray:22,22;}</style><g id="gb1"><g transform="matrix(0.18 0 0 0.18 1 1)"><ellipse cx="85" cy="400" rx="50" ry="50" class="ps1"/><ellipse cx="250" cy="400" rx="50" ry="50" class="ps1"/><ellipse cx="415" cy="400" rx="50" ry="50" class="ps1"/><polyline points="20,235 250,0 480,235" class="ps2"/></g></g></defs><g mask="url(#cr0)"><g transform="matrix(86.4916 0 0 86.5591 3666.3 3941.67)"><use xlink:href="#gb1"/></g></g><g mask="url(#cr1)"><g transform="matrix(5.82878 0 0 5.83333 0 2040)"><polyline points="18,1485 18,568 157,318 323,124 573,40 907,12 1379,151 1796,290 1990,374 2268,374 2462,429 2601,568 2712,957 2712,1401 2629,1763 2518,1929 2323,2013 2157,2013 1962,1874 1823,1735 1740,1651 1601,1624 1407,1651 1101,1763 768,1846 462,1901 295,1846 157,1735 73,1568 18,1485" class="ps0"/></g></g></svg>