<svg version="1.1" baseProfile="full" xmlns="http://www.w3.org/2000/svg" xmlns:xlink="http://www.w3.org/1999/xlink" xmlns:rdf="http://www.w3.org/1999/02/22-rdf-syntax-ns#" xmlns:dc="http://purl.org/dc/elements/1.1/" stroke-linecap="round" stroke-linejoin="round" fill-rule="evenodd" width="800" height="800" viewBox="0 0 16000 16000"><metadata><rdf:RDF><rdf:Description><dc:description>MSS/MilX-Export to SVG</dc:description><dc:publisher>gs-soft AG</dc:publisher></rdf:Description></rdf:RDF></metadata><defs><mask id="co1" maskUnits="userSpaceOnUse" x="0" y="0" width="16000" height="16000"><g><use xlink:href="#cp0" fill="white"/><use xlink:href="#cp1" fill="black"/></g></mask><g id="co0"><use xlink:href="#cp0" mask="url(#co1)"/></g><mask id="cr0" maskUnits="userSpaceOnUse" x="0" y="0" width="16000" height="16000" fill-rule="nonzero"><use xlink:href="#co0" fill="white"/></mask><mask id="cr1" maskUnits="userSpaceOnUse" x="0" y="0" width="16000" height="16000" fill-rule="nonzero"><use xlink:href="#cp2" fill="white"/></mask><mask id="co3" maskUnits="userSpaceOnUse" x="0" y="0" width="16000" height="16000"><g><use xlink:href="#cp0" fill="white"/><use xlink:href="#cp3" fill="black"/></g></mask><g id="co2"><use xlink:href="#cp0" mask="url(#co3)"/></g><mask id="cr2" maskUnits="userSpaceOnUse" x="0" y="0" width="16000" height="16000" fill-rule="nonzero"><use xlink:href="#co2" fill="white"/></mask><polygon id="cp0" points="0,1500 16000,1500 16000,14500 0,14500" shape-rendering="crispEdges"/><polygon id="cp1" points="0,1948 449,1948 449,2546 0,2546" shape-rendering="crispEdges"/><polygon id="cp2" points="0,1500 16000,1500 16000,14500 0,14500" shape-rendering="crispEdges"/><polygon id="cp3" points="11813,13902 11813,13305 11215,13305 11215,13902" shape-rendering="crispEdges"/><style type="text/css">.ps0 {fill:none;stroke:rgb(66,160,255);stroke-width:2;}</style></defs><g mask="url(#cr0)"><g transform="matrix(9.96885 0 0 9.96169 0 1500)"><polyline points="1150,78 16,78" class="ps0"/></g></g><g mask="url(#cr1)"><g transform="matrix(9.96885 0 0 9.96169 0 1500)"><polyline points="80,14 16,78 80,142" class="ps0"/></g></g><g mask="url(#cr2)"><g transform="matrix(9.96885 0 0 9.96169 0 1500)"><polyline points="16,1212 1150,1212" class="ps0"/></g></g><g mask="url(#cr1)"><g transform="matrix(9.96885 0 0 9.96169 0 1500)"><polyline points="1086,1276 1150,1212 1086,1148" class="ps0"/><polyline points="1150,78 1202,81 1295,106 1374,152 1441,217 1494,297 1534,388 1560,487 1574,592 1574,698 1560,803 1534,902 1494,993 1441,1073 1374,1138 1295,1184 1202,1209 1150,1212" class="ps0"/></g></g></svg>